<svg version="1.1" id="Layer_1" xmlns="http://www.w3.org/2000/svg" xmlns:xlink="http://www.w3.org/1999/xlink" x="0px" y="0px"
	 width="16" height="16" viewBox="0 0 1536 1536" enable-background="new 0 0 1536 1536" xml:space="preserve">
<path fill="#000000" opacity="1.000000" stroke="none" 
	d="
M1046.000000,1537.000000 
	C697.333374,1537.000000 349.166779,1537.000000 1.000140,1537.000000 
	C1.000093,1025.000122 1.000093,513.000305 1.000047,1.000346 
	C512.999756,1.000231 1024.999512,1.000231 1536.999512,1.000115 
	C1536.999634,512.999695 1536.999634,1024.999390 1536.999756,1536.999512 
	C1373.500000,1537.000000 1210.000000,1537.000000 1046.000000,1537.000000 
M772.278809,1091.775024 
	C760.727600,1108.415405 748.270264,1124.510498 737.847717,1141.830078 
	C723.895142,1165.015625 716.013794,1190.155762 718.878418,1217.904663 
	C721.845276,1246.644531 741.186890,1270.649414 769.041260,1277.962891 
	C796.293030,1285.118286 821.982971,1280.183350 845.489197,1265.112061 
	C873.286560,1247.289307 890.064331,1220.837036 901.006714,1190.444458 
	C913.893250,1154.651855 917.691772,1117.195557 918.833191,1079.542969 
	C919.958862,1042.413086 919.630554,1005.239868 920.105957,968.087769 
	C920.134399,965.872131 921.090210,963.201050 922.534058,961.542419 
	C938.489990,943.212280 954.675415,925.082275 970.708435,906.818787 
	C1025.607788,844.281860 1080.496582,781.735596 1135.309082,719.122559 
	C1140.877319,712.761963 1146.462280,706.286438 1151.018677,699.207214 
	C1155.293945,692.564575 1152.767456,685.043152 1145.969727,680.046082 
	C1140.988281,676.384277 1134.821899,677.155396 1129.234619,682.271606 
	C1127.647705,683.724792 1126.250977,685.400818 1124.865479,687.057129 
	C1110.356445,704.402893 1096.126587,721.989868 1081.323975,739.080994 
	C1038.069336,789.022400 994.609375,838.786011 951.180603,888.576416 
	C941.166565,900.057312 930.955383,911.366333 920.003906,923.689636 
	C920.003906,920.734009 920.003784,918.979065 920.003784,917.224121 
	C920.003784,850.895813 920.003967,784.567566 920.003784,718.239258 
	C920.003723,710.739868 920.082092,703.239319 919.976929,695.741394 
	C919.883423,689.075378 915.034119,683.005493 909.147949,681.896179 
	C902.652893,680.672058 896.570923,683.950500 893.596130,690.084167 
	C884.036072,709.795349 874.943604,729.756104 864.716675,749.116516 
	C842.552307,791.075195 817.848389,831.445679 787.236450,867.932434 
	C767.070679,891.968323 745.957581,915.034302 720.048340,933.129089 
	C683.121033,958.918884 642.475586,968.371643 598.277893,958.933289 
	C557.637817,950.254578 528.522034,925.288086 506.941254,890.753662 
	C484.536407,854.900513 473.982147,815.104919 469.139130,773.609985 
	C463.660034,726.665100 465.615875,679.850952 472.775177,633.189514 
	C482.839447,567.594666 503.923065,505.879272 537.962280,448.805939 
	C563.743408,405.578735 594.768188,366.662292 634.875549,335.756622 
	C675.838989,304.191345 721.779541,285.979736 774.141968,286.181976 
	C829.745605,286.396759 869.404419,315.967773 885.088989,368.979279 
	C895.543091,404.312469 895.867249,440.258423 890.569275,476.363312 
	C884.267151,519.310303 869.889832,559.743958 850.991272,598.637024 
	C831.003174,639.772400 806.635376,678.148193 777.546631,713.471558 
	C773.917480,717.878479 772.888000,722.572632 774.533386,727.863281 
	C776.167847,733.118713 779.454712,736.890381 785.067566,738.077087 
	C791.838806,739.508789 797.006470,736.910034 801.270020,731.694458 
	C821.525391,706.915527 839.662476,680.667664 855.564392,652.908997 
	C889.903320,592.966553 915.527649,529.930603 922.466736,460.480682 
	C926.099976,424.117340 923.535400,388.274323 911.042480,353.629669 
	C898.774719,319.609039 878.266174,292.171997 845.936951,274.662079 
	C814.578735,257.678009 780.799072,254.562561 746.087463,258.315674 
	C701.611267,263.124542 661.630920,279.843842 625.260132,305.507751 
	C581.859619,336.132050 548.385620,375.988495 520.071716,420.366791 
	C478.154480,486.066467 452.662079,557.882690 441.802307,634.967529 
	C433.730225,692.264648 433.308289,749.499878 444.022675,806.525696 
	C451.399323,845.786438 464.632141,882.796387 487.672119,915.877686 
	C536.543152,986.048157 619.336182,1010.969421 697.826355,978.852966 
	C733.752686,964.152710 762.535461,939.716370 788.074280,911.146362 
	C822.379578,872.769287 850.484192,830.027222 875.729492,785.324097 
	C881.067139,775.872375 886.035767,766.212280 891.174438,756.648132 
	C891.995239,758.591736 891.988403,760.346558 891.996155,762.101318 
	C892.272339,824.417480 892.517273,886.733887 892.910583,949.049316 
	C892.933411,952.666931 891.905151,955.305542 889.549805,957.932556 
	C877.661987,971.192017 865.844543,984.515991 854.123962,997.923645 
	C826.962036,1028.995483 799.870117,1060.128296 772.278809,1091.775024 
z"/>
<path fill="#FDFDFD" opacity="1.000000" stroke="none" 
	d="
M772.514282,1091.505737 
	C799.870117,1060.128296 826.962036,1028.995483 854.123962,997.923645 
	C865.844543,984.515991 877.661987,971.192017 889.549805,957.932556 
	C891.905151,955.305542 892.933411,952.666931 892.910583,949.049316 
	C892.517273,886.733887 892.272339,824.417480 891.996155,762.101318 
	C891.988403,760.346558 891.995239,758.591736 891.174438,756.648132 
	C886.035767,766.212280 881.067139,775.872375 875.729492,785.324097 
	C850.484192,830.027222 822.379578,872.769287 788.074280,911.146362 
	C762.535461,939.716370 733.752686,964.152710 697.826355,978.852966 
	C619.336182,1010.969421 536.543152,986.048157 487.672119,915.877686 
	C464.632141,882.796387 451.399323,845.786438 444.022675,806.525696 
	C433.308289,749.499878 433.730225,692.264648 441.802307,634.967529 
	C452.662079,557.882690 478.154480,486.066467 520.071716,420.366791 
	C548.385620,375.988495 581.859619,336.132050 625.260132,305.507751 
	C661.630920,279.843842 701.611267,263.124542 746.087463,258.315674 
	C780.799072,254.562561 814.578735,257.678009 845.936951,274.662079 
	C878.266174,292.171997 898.774719,319.609039 911.042480,353.629669 
	C923.535400,388.274323 926.099976,424.117340 922.466736,460.480682 
	C915.527649,529.930603 889.903320,592.966553 855.564392,652.908997 
	C839.662476,680.667664 821.525391,706.915527 801.270020,731.694458 
	C797.006470,736.910034 791.838806,739.508789 785.067566,738.077087 
	C779.454712,736.890381 776.167847,733.118713 774.533386,727.863281 
	C772.888000,722.572632 773.917480,717.878479 777.546631,713.471558 
	C806.635376,678.148193 831.003174,639.772400 850.991272,598.637024 
	C869.889832,559.743958 884.267151,519.310303 890.569275,476.363312 
	C895.867249,440.258423 895.543091,404.312469 885.088989,368.979279 
	C869.404419,315.967773 829.745605,286.396759 774.141968,286.181976 
	C721.779541,285.979736 675.838989,304.191345 634.875549,335.756622 
	C594.768188,366.662292 563.743408,405.578735 537.962280,448.805939 
	C503.923065,505.879272 482.839447,567.594666 472.775177,633.189514 
	C465.615875,679.850952 463.660034,726.665100 469.139130,773.609985 
	C473.982147,815.104919 484.536407,854.900513 506.941254,890.753662 
	C528.522034,925.288086 557.637817,950.254578 598.277893,958.933289 
	C642.475586,968.371643 683.121033,958.918884 720.048340,933.129089 
	C745.957581,915.034302 767.070679,891.968323 787.236450,867.932434 
	C817.848389,831.445679 842.552307,791.075195 864.716675,749.116516 
	C874.943604,729.756104 884.036072,709.795349 893.596130,690.084167 
	C896.570923,683.950500 902.652893,680.672058 909.147949,681.896179 
	C915.034119,683.005493 919.883423,689.075378 919.976929,695.741394 
	C920.082092,703.239319 920.003723,710.739868 920.003784,718.239258 
	C920.003967,784.567566 920.003784,850.895813 920.003784,917.224121 
	C920.003784,918.979065 920.003906,920.734009 920.003906,923.689636 
	C930.955383,911.366333 941.166565,900.057312 951.180603,888.576416 
	C994.609375,838.786011 1038.069336,789.022400 1081.323975,739.080994 
	C1096.126587,721.989868 1110.356445,704.402893 1124.865479,687.057129 
	C1126.250977,685.400818 1127.647705,683.724792 1129.234619,682.271606 
	C1134.821899,677.155396 1140.988281,676.384277 1145.969727,680.046082 
	C1152.767456,685.043152 1155.293945,692.564575 1151.018677,699.207214 
	C1146.462280,706.286438 1140.877319,712.761963 1135.309082,719.122559 
	C1080.496582,781.735596 1025.607788,844.281860 970.708435,906.818787 
	C954.675415,925.082275 938.489990,943.212280 922.534058,961.542419 
	C921.090210,963.201050 920.134399,965.872131 920.105957,968.087769 
	C919.630554,1005.239868 919.958862,1042.413086 918.833191,1079.542969 
	C917.691772,1117.195557 913.893250,1154.651855 901.006714,1190.444458 
	C890.064331,1220.837036 873.286560,1247.289307 845.489197,1265.112061 
	C821.982971,1280.183350 796.293030,1285.118286 769.041260,1277.962891 
	C741.186890,1270.649414 721.845276,1246.644531 718.878418,1217.904663 
	C716.013794,1190.155762 723.895142,1165.015625 737.847717,1141.830078 
	C748.270264,1124.510498 760.727600,1108.415405 772.514282,1091.505737 
M892.925537,1015.500793 
	C892.925537,1009.155762 892.925537,1002.810730 892.925537,995.623718 
	C891.120911,997.423218 890.120239,998.302673 889.255859,999.300171 
	C863.988342,1028.457764 838.617981,1057.527466 813.516235,1086.827271 
	C794.373840,1109.171143 775.366333,1131.676270 761.166199,1157.666016 
	C751.609436,1175.157349 745.271729,1193.544800 748.007629,1213.929932 
	C750.145752,1229.860840 757.570801,1242.344971 772.998779,1248.474609 
	C787.290344,1254.152832 801.844177,1252.564209 815.942261,1247.496826 
	C836.073242,1240.260620 849.384216,1225.184814 860.056274,1207.427856 
	C876.935547,1179.343018 883.663940,1148.100342 888.013855,1116.172607 
	C892.520142,1083.096802 893.063782,1049.812134 892.925537,1015.500793 
z"/>
<path fill="#010101" opacity="1.000000" stroke="none" 
	d="
M892.925537,1016.000610 
	C893.063782,1049.812134 892.520142,1083.096802 888.013855,1116.172607 
	C883.663940,1148.100342 876.935547,1179.343018 860.056274,1207.427856 
	C849.384216,1225.184814 836.073242,1240.260620 815.942261,1247.496826 
	C801.844177,1252.564209 787.290344,1254.152832 772.998779,1248.474609 
	C757.570801,1242.344971 750.145752,1229.860840 748.007629,1213.929932 
	C745.271729,1193.544800 751.609436,1175.157349 761.166199,1157.666016 
	C775.366333,1131.676270 794.373840,1109.171143 813.516235,1086.827271 
	C838.617981,1057.527466 863.988342,1028.457764 889.255859,999.300171 
	C890.120239,998.302673 891.120911,997.423218 892.925537,995.623718 
	C892.925537,1002.810730 892.925537,1009.155762 892.925537,1016.000610 
z"/>
</svg>